<svg xmlns="http://www.w3.org/2000/svg" width="68" height="68" viewBox="0 0 68 68"><defs><style>.a{fill:#4968ac}</style></defs><g><path d="M64.245,0H3.753A3.753,3.753,0,0,0,0,3.754V64.246A3.755,3.755,0,0,0,3.753,68H36.32V41.667H27.459V31.4H36.32V23.834c0-8.782,5.362-13.566,13.2-13.566a73.5,73.5,0,0,1,7.917.4v9.179l-5.435,0c-4.26,0-5.082,2.025-5.082,5V31.4H57.082L55.753,41.663H46.917V68H64.243A3.757,3.757,0,0,0,68,64.246V3.752A3.753,3.753,0,0,0,64.245,0Z" class="a" transform="translate(0 -0.001) translate(0 0)"/></g></svg>