<svg xmlns="http://www.w3.org/2000/svg" width="68" height="68" viewBox="0 0 68 68"><defs><style>.a{fill:#ffe812}</style></defs><path d="M68,62.688A5.312,5.312,0,0,1,62.688,68H5.313A5.312,5.312,0,0,1,0,62.688V5.313A5.312,5.312,0,0,1,5.313,0H62.688A5.312,5.312,0,0,1,68,5.313Z" class="a"/><path d="M51.625,36C36.368,36,24,45.752,24,57.781c0,7.777,5.171,14.6,12.949,18.455-.423,1.459-2.719,9.388-2.811,10.011,0,0-.055.468.248.647a.833.833,0,0,0,.66.04c.869-.121,10.079-6.59,11.673-7.714a35,35,0,0,0,4.907.343c15.257,0,27.625-9.752,27.625-21.781S66.882,36,51.625,36Z" transform="translate(-17.625 -26.437)"/><path d="M54.895,107.611a1.561,1.561,0,0,1-1.594-1.522V96.621H50.814a1.561,1.561,0,1,1,0-3.121h8.161a1.561,1.561,0,1,1,0,3.121H56.488v9.468A1.561,1.561,0,0,1,54.895,107.611Zm13.975-.021a1.308,1.308,0,0,1-1.326-.7l-.789-2.066h-4.86l-.79,2.067a1.307,1.307,0,0,1-1.325.7,2.432,2.432,0,0,1-1.013-.22c-.439-.2-.862-.76-.378-2.263L62.2,95.073a2.22,2.22,0,0,1,4.248,0l3.811,10.03c.485,1.507.063,2.064-.377,2.266a2.437,2.437,0,0,1-1.013.22h0ZM65.916,102l-1.592-4.522L62.732,102h3.184Zm6.908,5.381a1.5,1.5,0,0,1-1.527-1.461V95.094a1.627,1.627,0,0,1,3.254,0v9.363h3.387a1.462,1.462,0,1,1,0,2.922Zm8.854.212A1.6,1.6,0,0,1,80.085,106v-10.9a1.594,1.594,0,0,1,3.188,0v3.425l4.447-4.447a1.237,1.237,0,0,1,.884-.355A1.614,1.614,0,0,1,90.168,95.2a1.242,1.242,0,0,1-.352.97L86.185,99.8l3.923,5.2a1.594,1.594,0,0,1-2.544,1.92l-3.738-4.952-.553.553V106a1.6,1.6,0,0,1-1.594,1.595Z" class="a" transform="translate(-36.168 -68.664)"/></svg>